<svg width="20" height="19" viewBox="0 0 20 19" fill="none" xmlns="http://www.w3.org/2000/svg">
<path d="M0.580078 9.27173C0.580078 8.44715 0.684938 7.64831 0.881312 6.88474C1.40796 6.91243 1.93201 6.79394 2.39553 6.54239C2.85904 6.29084 3.24397 5.91602 3.50777 5.45936C3.77157 5.0027 3.90395 4.48199 3.89029 3.95479C3.87663 3.42759 3.71745 2.91443 3.43036 2.47205C4.58281 1.3382 6.00495 0.516411 7.56279 0.0841064C7.80205 0.55452 8.16682 0.94955 8.61671 1.22547C9.0666 1.50139 9.58407 1.64743 10.1118 1.64743C10.6396 1.64743 11.1571 1.50139 11.607 1.22547C12.0569 0.94955 12.4216 0.55452 12.6609 0.0841064C14.2187 0.516411 15.6409 1.3382 16.7933 2.47205C16.5059 2.91451 16.3465 3.42787 16.3327 3.95531C16.319 4.48275 16.4514 5.00371 16.7153 5.46057C16.9793 5.91742 17.3645 6.29235 17.8283 6.54387C18.2921 6.79539 18.8164 6.91369 19.3433 6.88569C19.5397 7.64831 19.6445 8.44715 19.6445 9.27173C19.6445 10.0963 19.5397 10.8952 19.3433 11.6587C18.8166 11.6309 18.2924 11.7492 17.8287 12.0007C17.3651 12.2522 16.98 12.627 16.7161 13.0837C16.4522 13.5403 16.3197 14.0611 16.3333 14.5884C16.347 15.1157 16.5062 15.629 16.7933 16.0714C15.6409 17.2053 14.2187 18.0271 12.6609 18.4594C12.4216 17.9889 12.0569 17.5939 11.607 17.318C11.1571 17.0421 10.6396 16.896 10.1118 16.896C9.58407 16.896 9.0666 17.0421 8.61671 17.318C8.16682 17.5939 7.80205 17.9889 7.56279 18.4594C6.00495 18.0271 4.58281 17.2053 3.43036 16.0714C3.71778 15.629 3.87718 15.1156 3.89095 14.5882C3.90471 14.0607 3.7723 13.5398 3.50835 13.0829C3.2444 12.626 2.85921 12.2511 2.3954 11.9996C1.93159 11.7481 1.40724 11.6298 0.880359 11.6578C0.684938 10.8961 0.580078 10.0973 0.580078 9.27173ZM5.15959 12.1315C5.76015 13.1716 5.93174 14.3679 5.69724 15.4909C6.08617 15.7673 6.49989 16.0066 6.93363 16.2058C7.80746 15.423 8.93961 14.9905 10.1128 14.9914C11.3139 14.9914 12.4369 15.4404 13.2919 16.2058C13.7257 16.0066 14.1394 15.7673 14.5283 15.4909C14.2876 14.3431 14.479 13.1468 15.066 12.1315C15.6519 11.1157 16.5922 10.3519 17.7065 9.98669C17.7506 9.51107 17.7506 9.0324 17.7065 8.55678C16.5918 8.19173 15.6512 7.42793 15.065 6.41192C14.4781 5.39662 14.2866 4.20036 14.5274 3.05259C14.1386 2.77607 13.7246 2.5367 13.291 2.33764C12.4174 3.12021 11.2856 3.55269 10.1128 3.55211C8.93961 3.55292 7.80746 3.12043 6.93363 2.33764C6.50002 2.53671 6.08606 2.77608 5.69724 3.05259C5.938 4.20036 5.74654 5.39662 5.15959 6.41192C4.57368 7.42775 3.63339 8.19153 2.51903 8.55678C2.47495 9.0324 2.47495 9.51107 2.51903 9.98669C3.63374 10.3517 4.57441 11.1155 5.16055 12.1315H5.15959ZM10.1128 12.1315C9.35432 12.1315 8.62691 11.8302 8.09059 11.2939C7.55428 10.7576 7.25298 10.0302 7.25298 9.27173C7.25298 8.51326 7.55428 7.78586 8.09059 7.24954C8.62691 6.71322 9.35432 6.41192 10.1128 6.41192C10.8713 6.41192 11.5987 6.71322 12.135 7.24954C12.6713 7.78586 12.9726 8.51326 12.9726 9.27173C12.9726 10.0302 12.6713 10.7576 12.135 11.2939C11.5987 11.8302 10.8713 12.1315 10.1128 12.1315ZM10.1128 10.225C10.3656 10.225 10.6081 10.1246 10.7869 9.9458C10.9656 9.76702 11.0661 9.52456 11.0661 9.27173C11.0661 9.01891 10.9656 8.77644 10.7869 8.59767C10.6081 8.41889 10.3656 8.31846 10.1128 8.31846C9.85997 8.31846 9.6175 8.41889 9.43872 8.59767C9.25995 8.77644 9.15952 9.01891 9.15952 9.27173C9.15952 9.52456 9.25995 9.76702 9.43872 9.9458C9.6175 10.1246 9.85997 10.225 10.1128 10.225Z" fill="#CDCDCD"/>
</svg>
