<svg width="20" height="20" viewBox="0 0 20 20" fill="none" xmlns="http://www.w3.org/2000/svg">
<path fill-rule="evenodd" clip-rule="evenodd" d="M18.7204 0.0841064H11.2305L10.7538 0.325441L9.86865 1.35513L8.98347 0.325441L8.50683 0.0841064H1.01685L0.335938 0.888555V16.9775L1.01685 17.782H8.22085L9.39201 19.1495H10.3453L11.5164 17.782H18.7204L19.4014 16.9775V0.888555L18.7204 0.0841064ZM9.18774 16.6879L8.94261 16.4144L8.50683 16.1731H1.69775V1.693H8.22085L9.22859 2.88359L9.18774 16.6879ZM18.0395 16.1731H11.2305L10.7538 16.4144L10.5632 16.6236V2.81923L11.5164 1.693H18.0395V16.1731ZM7.14502 4.91079H3.05957V6.51969H7.14502V4.91079ZM7.14502 11.3464H3.05957V12.9553H7.14502V11.3464ZM3.05957 8.12859H7.14502V9.73748H3.05957V8.12859ZM16.6777 4.91079H12.5923V6.51969H16.6777V4.91079ZM12.5923 8.12859H16.6777V9.73748H12.5923V8.12859ZM12.5923 11.3464H16.6777V12.9553H12.5923V11.3464Z" fill="#CDCDCD"/>
</svg>
