<svg width="31" height="31" viewBox="0 0 31 31" fill="none" xmlns="http://www.w3.org/2000/svg">
<g clip-path="url(#clip0_205_725)">
<path d="M6.21875 7.50781C6.61133 7.90332 7.25293 7.90625 7.64844 7.51074L7.65137 7.50781L7.66016 7.53711C8.05566 7.14453 8.05859 6.50293 7.66309 6.10742L7.66016 6.10449L5.84375 4.17383C5.45703 3.76953 4.81543 3.75488 4.41113 4.14453C4.00684 4.53125 3.99219 5.17285 4.38184 5.57715L6.21875 7.50781ZM24.8926 7.50195L26.8145 5.63281C27.21 5.24023 27.2129 4.59863 26.8174 4.20312L26.8145 4.2002L26.7764 4.18555C26.3838 3.79004 25.7422 3.78711 25.3467 4.18262L25.3438 4.18555L23.457 6.07227C23.0615 6.46777 23.0615 7.10938 23.457 7.50488C23.8555 7.89746 24.4971 7.89746 24.8926 7.50195ZM5.20508 15.5C5.20508 14.9404 4.75098 14.4863 4.19141 14.4863H1.51367C0.954102 14.4863 0.5 14.9404 0.5 15.5C0.5 16.0596 0.954102 16.5137 1.51367 16.5137H4.19141C4.75098 16.5137 5.20508 16.0596 5.20508 15.5ZM15.4971 5.19336H15.5059C16.0654 5.19336 16.5166 4.74219 16.5166 4.18262V1.51367C16.5137 0.954102 16.0596 0.5 15.5 0.5C14.9404 0.5 14.4863 0.954102 14.4863 1.51367V4.18262C14.4863 4.74219 14.9375 5.19336 15.4971 5.19336ZM15.623 7.56348C11.2461 7.56348 7.68652 11.123 7.68652 15.5C7.68652 19.877 11.2461 23.4365 15.623 23.4365C20 23.4365 23.5566 19.877 23.5566 15.5C23.5566 11.123 19.9971 7.56348 15.623 7.56348ZM15.623 20.9961C12.5938 20.9961 10.127 18.5322 10.127 15.5C10.127 12.6318 12.3389 10.2705 15.1455 10.0273C14.9434 10.5752 14.8262 11.1641 14.8262 11.7822C14.8262 14.5684 17.085 16.8271 19.8711 16.8271C20.2549 16.8271 20.624 16.7803 20.9844 16.7012C20.4336 19.1533 18.2393 20.9961 15.623 20.9961ZM6.10742 23.498L4.18555 25.3672C3.79004 25.7598 3.78711 26.4014 4.18262 26.7969L4.18555 26.7998L4.22363 26.8145C4.61621 27.21 5.25781 27.2129 5.65332 26.8174L5.65625 26.8145L7.54297 24.9277C7.93848 24.5322 7.93848 23.8906 7.54297 23.4951C7.14453 23.1025 6.50293 23.1025 6.10742 23.498ZM29.4863 14.4863H26.8174C26.2578 14.4863 25.8037 14.9404 25.8037 15.5C25.8037 16.0596 26.2578 16.5137 26.8174 16.5137H29.4863C30.0459 16.5137 30.5 16.0596 30.5 15.5C30.5 14.9404 30.0459 14.4863 29.4863 14.4863ZM24.7812 23.4922C24.3887 23.0967 23.7471 23.0938 23.3516 23.4893L23.3486 23.4922L23.3398 23.4629C22.9443 23.8555 22.9414 24.4971 23.3369 24.8926L23.3398 24.8955L25.1562 26.8262C25.543 27.2305 26.1846 27.2451 26.5889 26.8555C26.9932 26.4688 27.0078 25.8271 26.6182 25.4229L24.7812 23.4922ZM15.5029 25.8066H15.4941C14.9346 25.8066 14.4834 26.2578 14.4834 26.8174V29.4863C14.4834 30.0459 14.9375 30.5 15.4971 30.5C16.0566 30.5 16.5107 30.0459 16.5107 29.4863V26.8174C16.5137 26.2578 16.0625 25.8066 15.5029 25.8066Z" fill="#8A8A8A"/>
</g>
<defs>
<clipPath id="clip0_205_725">
<rect width="30" height="30" fill="white" transform="translate(0.5 0.5)"/>
</clipPath>
</defs>
</svg>
