<svg width="31" height="31" viewBox="0 0 31 31" fill="none" xmlns="http://www.w3.org/2000/svg">
<path d="M22.375 2.375C23.7011 2.375 24.9729 2.90178 25.9105 3.83947C26.8482 4.77715 27.375 6.04892 27.375 7.375V23.625C27.375 24.9511 26.8482 26.2229 25.9105 27.1605C24.9729 28.0982 23.7011 28.625 22.375 28.625H9.25C7.92392 28.625 6.65215 28.0982 5.71447 27.1605C4.77678 26.2229 4.25 24.9511 4.25 23.625V7.375C4.25 6.04892 4.77678 4.77715 5.71447 3.83947C6.65215 2.90178 7.92392 2.375 9.25 2.375H22.375ZM22.375 4.5625H9.25C8.52702 4.5625 7.8318 4.84092 7.30867 5.33996C6.78555 5.83899 6.47469 6.52032 6.44062 7.2425L6.4375 7.375V23.625C6.4375 24.348 6.71592 25.0432 7.21496 25.5663C7.71399 26.0895 8.39532 26.4003 9.1175 26.4344L9.25 26.4375H22.375C23.098 26.4375 23.7932 26.1591 24.3163 25.66C24.8395 25.161 25.1503 24.4797 25.1844 23.7575L25.1875 23.625V7.375C25.1875 6.65202 24.9091 5.9568 24.41 5.43367C23.911 4.91055 23.2297 4.59969 22.5075 4.56562L22.375 4.5625Z" fill="#8A8A8A"/>
<path d="M7.06201 10.0312C7.34421 10.0314 7.61543 10.1406 7.819 10.336C8.02257 10.5314 8.14272 10.798 8.15434 11.08C8.16596 11.3619 8.06815 11.6375 7.88136 11.849C7.69456 12.0605 7.43324 12.1917 7.15201 12.215L7.06201 12.2187H3.62451C3.34231 12.2186 3.07108 12.1094 2.86752 11.914C2.66395 11.7186 2.5438 11.452 2.53218 11.17C2.52056 10.8881 2.61837 10.6125 2.80516 10.401C2.99196 10.1895 3.25328 10.0583 3.53451 10.035L3.62451 10.0312H7.06201ZM7.06201 18.7812C7.34421 18.7814 7.61543 18.8906 7.819 19.086C8.02257 19.2814 8.14272 19.548 8.15434 19.83C8.16596 20.1119 8.06815 20.3875 7.88136 20.599C7.69456 20.8105 7.43324 20.9417 7.15201 20.965L7.06201 20.9688H3.62451C3.34231 20.9686 3.07108 20.8594 2.86752 20.664C2.66395 20.4686 2.5438 20.202 2.53218 19.92C2.52056 19.6381 2.61837 19.3625 2.80516 19.151C2.99196 18.9395 3.25328 18.8083 3.53451 18.785L3.62451 18.7812H7.06201ZM20.812 10.6562C21.0865 10.6563 21.351 10.7595 21.5529 10.9454C21.7548 11.1314 21.8794 11.3864 21.902 11.66L21.9058 11.75V19.25C21.9056 19.5322 21.7964 19.8034 21.601 20.007C21.4056 20.2106 21.139 20.3307 20.857 20.3423C20.5751 20.354 20.2995 20.2561 20.088 20.0693C19.8765 19.8826 19.7454 19.6212 19.722 19.34L19.7183 19.25V11.75C19.7183 11.1462 20.2083 10.6562 20.812 10.6562Z" fill="#8A8A8A"/>
</svg>
