<svg width="31" height="31" viewBox="0 0 31 31" fill="none" xmlns="http://www.w3.org/2000/svg">
<path d="M12.0684 25.2312C10.7982 24.783 9.62904 24.0885 8.62778 23.1875C8.44049 23.0372 8.20268 22.9645 7.96338 22.9844C7.72407 23.0043 7.50152 23.1152 7.34162 23.2944C7.18171 23.4735 7.09664 23.7072 7.10395 23.9472C7.11126 24.1872 7.21039 24.4153 7.3809 24.5844C8.56584 25.6468 9.94839 26.4655 11.4497 26.9937C11.5489 27.0298 11.6535 27.0488 11.759 27.05C11.9786 27.0476 12.1904 26.9681 12.3574 26.8256C12.5244 26.683 12.6361 26.4863 12.6729 26.2698C12.7098 26.0533 12.6694 25.8307 12.5589 25.6409C12.4485 25.4511 12.2748 25.3061 12.0684 25.2312ZM14.834 26.0844C14.7471 26.172 14.6784 26.2759 14.6317 26.3901C14.5851 26.5043 14.5614 26.6266 14.5622 26.75C14.5636 26.8725 14.5891 26.9935 14.6372 27.1062C14.6848 27.2198 14.7514 27.3244 14.834 27.4156C14.9252 27.4984 15.0298 27.565 15.1434 27.6125C15.2556 27.6621 15.377 27.6877 15.4997 27.6877C15.6223 27.6877 15.7437 27.6621 15.8559 27.6125C15.9722 27.5704 16.0779 27.5032 16.1654 27.4157C16.2529 27.3282 16.32 27.2226 16.3622 27.1062C16.4102 26.9935 16.4357 26.8725 16.4372 26.75C16.4382 26.5638 16.3838 26.3815 16.2809 26.2263C16.178 26.0711 16.0311 25.9501 15.8592 25.8787C15.6872 25.8073 15.4978 25.7887 15.3153 25.8254C15.1327 25.862 14.9652 25.9522 14.834 26.0844Z" fill="#8A8A8A"/>
<path d="M15.4996 1.4375V3.3125C13.3601 3.31223 11.2583 3.87516 9.40531 4.94473C7.55236 6.01429 6.01362 7.55279 4.94375 9.40557C3.87389 11.2584 3.31062 13.3601 3.31055 15.4996C3.31048 17.6391 3.87362 19.7409 4.94336 21.5937C5.00197 21.7058 5.08264 21.8048 5.18051 21.8849C5.27837 21.9649 5.39143 22.0243 5.51286 22.0596C5.63429 22.0948 5.7616 22.1051 5.88711 22.0899C6.01263 22.0746 6.13377 22.0341 6.24323 21.9709C6.3527 21.9076 6.44824 21.8228 6.5241 21.7217C6.59995 21.6205 6.65457 21.505 6.68465 21.3822C6.71473 21.2594 6.71966 21.1318 6.69914 21.007C6.67862 20.8823 6.63307 20.763 6.56524 20.6562C5.65998 19.0883 5.18347 17.3096 5.18362 15.4991C5.18378 13.6886 5.66058 11.91 6.56611 10.3422C7.47163 8.77444 8.77396 7.47267 10.3421 6.5678C11.9103 5.66294 13.6891 5.18689 15.4996 5.1875V7.0625C17.7374 7.0625 19.8835 7.95145 21.4658 9.53379C23.0482 11.1161 23.9371 13.2622 23.9371 15.5H25.8121C25.8141 17.6336 25.1542 19.7154 23.9235 21.4583C22.6927 23.2012 20.9516 24.5194 18.9402 25.2312C18.8169 25.2664 18.7021 25.3265 18.603 25.4077C18.5038 25.489 18.4224 25.5898 18.3637 25.7038C18.305 25.8178 18.2703 25.9426 18.2618 26.0705C18.2533 26.1985 18.2711 26.3268 18.3141 26.4476C18.3572 26.5683 18.4245 26.679 18.5121 26.7727C18.5996 26.8664 18.7054 26.9412 18.8229 26.9924C18.9405 27.0436 19.0673 27.0701 19.1955 27.0703C19.3237 27.0706 19.4506 27.0445 19.5684 26.9937C21.9439 26.1524 24.0002 24.5954 25.4542 22.537C26.9081 20.4786 27.6882 18.0201 27.6871 15.5H29.5621C29.5621 11.7704 28.0805 8.19354 25.4433 5.55631C22.8061 2.91908 19.2292 1.4375 15.4996 1.4375Z" fill="#8A8A8A"/>
</svg>
