<svg width="14" height="18" viewBox="0 0 14 18" fill="none" xmlns="http://www.w3.org/2000/svg">
<path d="M2.94 0C2.16026 0 1.41246 0.306334 0.861106 0.851612C0.309749 1.39689 0 2.13644 0 2.90758V17.307C0.000133069 17.4345 0.0358164 17.5594 0.103121 17.668C0.170425 17.7766 0.266739 17.8648 0.381457 17.9228C0.496175 17.9808 0.624846 18.0063 0.753302 17.9966C0.881757 17.9869 1.00501 17.9423 1.1095 17.8678L7 13.6622L12.8905 17.8692C12.9951 17.9438 13.1185 17.9884 13.247 17.998C13.3756 18.0077 13.5044 17.982 13.6192 17.9239C13.7339 17.8657 13.8302 17.7773 13.8974 17.6685C13.9646 17.5597 14.0001 17.4346 14 17.307V2.90758C14 2.13644 13.6903 1.39689 13.1389 0.851612C12.5875 0.306334 11.8397 0 11.06 0H2.94Z" fill="#A88DCB"/>
</svg>
